<mxfile host="Electron" modified="2025-02-26T15:20:48.159Z" agent="Mozilla/5.0 (Windows NT 10.0; Win64; x64) AppleWebKit/537.36 (KHTML, like Gecko) draw.io/24.5.1 Chrome/124.0.6367.207 Electron/30.0.6 Safari/537.36" etag="FSisCkKh8uTT0S2Kubjp" version="24.5.1" type="device">
  <diagram name="Page-1" id="_poZbObsLEnLOh7pFezw">
    <mxGraphModel dx="1509" dy="1988" grid="1" gridSize="10" guides="1" tooltips="1" connect="1" arrows="1" fold="1" page="1" pageScale="1" pageWidth="850" pageHeight="1100" math="0" shadow="0">
      <root>
        <mxCell id="0" />
        <mxCell id="1" parent="0" />
        <mxCell id="_Nw6DjDftG40vSoAcGvt-46" style="rounded=0;orthogonalLoop=1;jettySize=auto;html=1;endArrow=none;endFill=0;" edge="1" parent="1" source="_Nw6DjDftG40vSoAcGvt-1" target="_Nw6DjDftG40vSoAcGvt-6">
          <mxGeometry relative="1" as="geometry" />
        </mxCell>
        <mxCell id="_Nw6DjDftG40vSoAcGvt-1" value="Customer" style="shape=umlActor;verticalLabelPosition=bottom;verticalAlign=top;html=1;" vertex="1" parent="1">
          <mxGeometry x="520" y="-280" width="30" height="60" as="geometry" />
        </mxCell>
        <mxCell id="_Nw6DjDftG40vSoAcGvt-2" value="Cashier" style="shape=umlActor;verticalLabelPosition=bottom;verticalAlign=top;html=1;" vertex="1" parent="1">
          <mxGeometry x="520" y="400" width="30" height="60" as="geometry" />
        </mxCell>
        <mxCell id="_Nw6DjDftG40vSoAcGvt-3" value="Bank&lt;div&gt;&lt;br&gt;&lt;/div&gt;" style="shape=umlActor;verticalLabelPosition=bottom;verticalAlign=top;html=1;" vertex="1" parent="1">
          <mxGeometry x="1560" y="-320" width="30" height="60" as="geometry" />
        </mxCell>
        <mxCell id="_Nw6DjDftG40vSoAcGvt-5" value="Payment Gateway" style="shape=umlActor;verticalLabelPosition=bottom;verticalAlign=top;html=1;" vertex="1" parent="1">
          <mxGeometry x="1560" y="80" width="30" height="60" as="geometry" />
        </mxCell>
        <mxCell id="_Nw6DjDftG40vSoAcGvt-6" value="1. Authenticate" style="ellipse;whiteSpace=wrap;html=1;" vertex="1" parent="1">
          <mxGeometry x="660" y="-340" width="120" height="50" as="geometry" />
        </mxCell>
        <mxCell id="_Nw6DjDftG40vSoAcGvt-7" value="2. Logout" style="ellipse;whiteSpace=wrap;html=1;" vertex="1" parent="1">
          <mxGeometry x="680" y="-40" width="80" height="40" as="geometry" />
        </mxCell>
        <mxCell id="_Nw6DjDftG40vSoAcGvt-8" value="1.1. Scan Face Id" style="ellipse;whiteSpace=wrap;html=1;" vertex="1" parent="1">
          <mxGeometry x="680" y="-440" width="110" height="40" as="geometry" />
        </mxCell>
        <mxCell id="_Nw6DjDftG40vSoAcGvt-9" value="1.2. Enter password" style="ellipse;whiteSpace=wrap;html=1;" vertex="1" parent="1">
          <mxGeometry x="820" y="-430" width="120" height="50" as="geometry" />
        </mxCell>
        <mxCell id="_Nw6DjDftG40vSoAcGvt-10" value="1.3. Request a password reset" style="ellipse;whiteSpace=wrap;html=1;" vertex="1" parent="1">
          <mxGeometry x="870" y="-370" width="160" height="60" as="geometry" />
        </mxCell>
        <mxCell id="_Nw6DjDftG40vSoAcGvt-12" value="4. Check balance" style="ellipse;whiteSpace=wrap;html=1;" vertex="1" parent="1">
          <mxGeometry x="900" y="-190" width="120" height="40" as="geometry" />
        </mxCell>
        <mxCell id="_Nw6DjDftG40vSoAcGvt-13" value="5.Scan QR" style="ellipse;whiteSpace=wrap;html=1;" vertex="1" parent="1">
          <mxGeometry x="850" y="-230" width="80" height="40" as="geometry" />
        </mxCell>
        <mxCell id="_Nw6DjDftG40vSoAcGvt-14" value="6.Top-up mobile" style="ellipse;whiteSpace=wrap;html=1;" vertex="1" parent="1">
          <mxGeometry x="990" y="-140" width="120" height="40" as="geometry" />
        </mxCell>
        <mxCell id="_Nw6DjDftG40vSoAcGvt-15" value="7. Open saving account" style="ellipse;whiteSpace=wrap;html=1;" vertex="1" parent="1">
          <mxGeometry x="850" y="-140" width="120" height="60" as="geometry" />
        </mxCell>
        <mxCell id="_Nw6DjDftG40vSoAcGvt-16" value="8. Withdraw cash from ATM" style="ellipse;whiteSpace=wrap;html=1;" vertex="1" parent="1">
          <mxGeometry x="945" y="-270" width="130" height="70" as="geometry" />
        </mxCell>
        <mxCell id="_Nw6DjDftG40vSoAcGvt-17" value="8.1. Generate ATM withdrawal code" style="ellipse;whiteSpace=wrap;html=1;" vertex="1" parent="1">
          <mxGeometry x="1080" y="-400" width="120" height="70" as="geometry" />
        </mxCell>
        <mxCell id="_Nw6DjDftG40vSoAcGvt-18" value="&lt;p data-pm-slice=&quot;0 0 []&quot;&gt;8.2. Manage withdrawal codes&lt;/p&gt;" style="ellipse;whiteSpace=wrap;html=1;" vertex="1" parent="1">
          <mxGeometry x="1160" y="-280" width="120" height="70" as="geometry" />
        </mxCell>
        <mxCell id="_Nw6DjDftG40vSoAcGvt-19" value="9. Apply for a loan online" style="ellipse;whiteSpace=wrap;html=1;" vertex="1" parent="1">
          <mxGeometry x="780" y="10" width="140" height="70" as="geometry" />
        </mxCell>
        <mxCell id="_Nw6DjDftG40vSoAcGvt-20" value="10. Manage credit cards" style="ellipse;whiteSpace=wrap;html=1;" vertex="1" parent="1">
          <mxGeometry x="770" y="-80" width="120" height="50" as="geometry" />
        </mxCell>
        <mxCell id="_Nw6DjDftG40vSoAcGvt-21" value="11. Support customer" style="ellipse;whiteSpace=wrap;html=1;" vertex="1" parent="1">
          <mxGeometry x="690" y="370" width="140" height="70" as="geometry" />
        </mxCell>
        <mxCell id="_Nw6DjDftG40vSoAcGvt-22" value="12. Manage loan" style="ellipse;whiteSpace=wrap;html=1;" vertex="1" parent="1">
          <mxGeometry x="690" y="480" width="140" height="70" as="geometry" />
        </mxCell>
        <mxCell id="_Nw6DjDftG40vSoAcGvt-23" value="13. Approve large transactions" style="ellipse;whiteSpace=wrap;html=1;" vertex="1" parent="1">
          <mxGeometry x="980" y="200" width="140" height="70" as="geometry" />
        </mxCell>
        <mxCell id="_Nw6DjDftG40vSoAcGvt-28" value="3. Manage profile and account" style="ellipse;whiteSpace=wrap;html=1;" vertex="1" parent="1">
          <mxGeometry x="940" y="-40" width="160" height="55" as="geometry" />
        </mxCell>
        <mxCell id="_Nw6DjDftG40vSoAcGvt-29" value="3.1. Update profile" style="ellipse;whiteSpace=wrap;html=1;" vertex="1" parent="1">
          <mxGeometry x="890" y="70" width="120" height="50" as="geometry" />
        </mxCell>
        <mxCell id="_Nw6DjDftG40vSoAcGvt-30" value="3.2. Change password" style="ellipse;whiteSpace=wrap;html=1;" vertex="1" parent="1">
          <mxGeometry x="1040" y="90" width="150" height="60" as="geometry" />
        </mxCell>
        <mxCell id="_Nw6DjDftG40vSoAcGvt-31" value="Baking System" style="shape=umlFrame;whiteSpace=wrap;html=1;pointerEvents=0;width=110;height=30;" vertex="1" parent="1">
          <mxGeometry x="640" y="-480" width="840" height="1120" as="geometry" />
        </mxCell>
        <mxCell id="_Nw6DjDftG40vSoAcGvt-34" value="14. Transfer" style="ellipse;whiteSpace=wrap;html=1;" vertex="1" parent="1">
          <mxGeometry x="835" y="-300" width="110" height="40" as="geometry" />
        </mxCell>
        <mxCell id="_Nw6DjDftG40vSoAcGvt-35" value="15.&amp;nbsp;Process online payments" style="ellipse;whiteSpace=wrap;html=1;" vertex="1" parent="1">
          <mxGeometry x="1190" y="170" width="120" height="60" as="geometry" />
        </mxCell>
        <mxCell id="_Nw6DjDftG40vSoAcGvt-36" value="16.&amp;nbsp;Process ATM withdrawls" style="ellipse;whiteSpace=wrap;html=1;" vertex="1" parent="1">
          <mxGeometry x="1190" y="50" width="120" height="55" as="geometry" />
        </mxCell>
        <mxCell id="_Nw6DjDftG40vSoAcGvt-37" value="17.&amp;nbsp;Verify customer identity" style="ellipse;whiteSpace=wrap;html=1;" vertex="1" parent="1">
          <mxGeometry x="1280" y="-120" width="120" height="60" as="geometry" />
        </mxCell>
        <mxCell id="_Nw6DjDftG40vSoAcGvt-38" value="18.&amp;nbsp;Mange bank accounts" style="ellipse;whiteSpace=wrap;html=1;" vertex="1" parent="1">
          <mxGeometry x="1290" y="-185" width="120" height="55" as="geometry" />
        </mxCell>
        <mxCell id="_Nw6DjDftG40vSoAcGvt-39" value="19.&amp;nbsp;Integrate with Third-Party Services" style="ellipse;whiteSpace=wrap;html=1;" vertex="1" parent="1">
          <mxGeometry x="1200" y="280" width="180" height="70" as="geometry" />
        </mxCell>
        <mxCell id="_Nw6DjDftG40vSoAcGvt-41" value="&amp;lt;&amp;lt;extend&amp;gt;&amp;gt;" style="html=1;verticalAlign=bottom;labelBackgroundColor=none;endArrow=open;endFill=0;dashed=1;rounded=0;" edge="1" parent="1" source="_Nw6DjDftG40vSoAcGvt-8" target="_Nw6DjDftG40vSoAcGvt-6">
          <mxGeometry x="-0.1508" y="32" width="160" relative="1" as="geometry">
            <mxPoint x="570" y="-300" as="sourcePoint" />
            <mxPoint x="730" y="-300" as="targetPoint" />
            <mxPoint as="offset" />
          </mxGeometry>
        </mxCell>
        <mxCell id="_Nw6DjDftG40vSoAcGvt-42" value="&amp;lt;&amp;lt;extend&amp;gt;&amp;gt;" style="html=1;verticalAlign=bottom;labelBackgroundColor=none;endArrow=open;endFill=0;dashed=1;rounded=0;" edge="1" parent="1" source="_Nw6DjDftG40vSoAcGvt-9" target="_Nw6DjDftG40vSoAcGvt-6">
          <mxGeometry x="-0.5902" y="28" width="160" relative="1" as="geometry">
            <mxPoint x="742" y="-390" as="sourcePoint" />
            <mxPoint x="734" y="-330" as="targetPoint" />
            <mxPoint as="offset" />
          </mxGeometry>
        </mxCell>
        <mxCell id="_Nw6DjDftG40vSoAcGvt-43" value="&amp;lt;&amp;lt;extend&amp;gt;&amp;gt;" style="html=1;verticalAlign=bottom;labelBackgroundColor=none;endArrow=open;endFill=0;dashed=1;rounded=0;" edge="1" parent="1" source="_Nw6DjDftG40vSoAcGvt-10" target="_Nw6DjDftG40vSoAcGvt-6">
          <mxGeometry x="-0.0723" y="22" width="160" relative="1" as="geometry">
            <mxPoint x="828" y="-347" as="sourcePoint" />
            <mxPoint x="772" y="-323" as="targetPoint" />
            <mxPoint as="offset" />
          </mxGeometry>
        </mxCell>
        <mxCell id="_Nw6DjDftG40vSoAcGvt-47" style="rounded=0;orthogonalLoop=1;jettySize=auto;html=1;endArrow=none;endFill=0;" edge="1" parent="1" source="_Nw6DjDftG40vSoAcGvt-1" target="_Nw6DjDftG40vSoAcGvt-8">
          <mxGeometry relative="1" as="geometry">
            <mxPoint x="560" y="-240" as="sourcePoint" />
            <mxPoint x="730" y="-280" as="targetPoint" />
          </mxGeometry>
        </mxCell>
        <mxCell id="_Nw6DjDftG40vSoAcGvt-48" style="rounded=0;orthogonalLoop=1;jettySize=auto;html=1;endArrow=none;endFill=0;" edge="1" parent="1" source="_Nw6DjDftG40vSoAcGvt-1" target="_Nw6DjDftG40vSoAcGvt-13">
          <mxGeometry relative="1" as="geometry">
            <mxPoint x="560" y="-245" as="sourcePoint" />
            <mxPoint x="684" y="-289" as="targetPoint" />
          </mxGeometry>
        </mxCell>
        <mxCell id="_Nw6DjDftG40vSoAcGvt-49" style="rounded=0;orthogonalLoop=1;jettySize=auto;html=1;endArrow=none;endFill=0;" edge="1" parent="1" source="_Nw6DjDftG40vSoAcGvt-1" target="_Nw6DjDftG40vSoAcGvt-14">
          <mxGeometry relative="1" as="geometry">
            <mxPoint x="560" y="-238" as="sourcePoint" />
            <mxPoint x="806" y="-205" as="targetPoint" />
          </mxGeometry>
        </mxCell>
        <mxCell id="_Nw6DjDftG40vSoAcGvt-50" style="rounded=0;orthogonalLoop=1;jettySize=auto;html=1;endArrow=none;endFill=0;" edge="1" parent="1" source="_Nw6DjDftG40vSoAcGvt-1" target="_Nw6DjDftG40vSoAcGvt-7">
          <mxGeometry relative="1" as="geometry">
            <mxPoint x="560" y="-236" as="sourcePoint" />
            <mxPoint x="854" y="-153" as="targetPoint" />
          </mxGeometry>
        </mxCell>
        <mxCell id="_Nw6DjDftG40vSoAcGvt-51" style="rounded=0;orthogonalLoop=1;jettySize=auto;html=1;endArrow=none;endFill=0;" edge="1" parent="1" source="_Nw6DjDftG40vSoAcGvt-1" target="_Nw6DjDftG40vSoAcGvt-20">
          <mxGeometry relative="1" as="geometry">
            <mxPoint x="560" y="-221" as="sourcePoint" />
            <mxPoint x="715" y="-29" as="targetPoint" />
          </mxGeometry>
        </mxCell>
        <mxCell id="_Nw6DjDftG40vSoAcGvt-52" style="rounded=0;orthogonalLoop=1;jettySize=auto;html=1;endArrow=none;endFill=0;" edge="1" parent="1" source="_Nw6DjDftG40vSoAcGvt-1" target="_Nw6DjDftG40vSoAcGvt-15">
          <mxGeometry relative="1" as="geometry">
            <mxPoint x="560" y="-231" as="sourcePoint" />
            <mxPoint x="825" y="-72" as="targetPoint" />
          </mxGeometry>
        </mxCell>
        <mxCell id="_Nw6DjDftG40vSoAcGvt-53" style="rounded=0;orthogonalLoop=1;jettySize=auto;html=1;endArrow=none;endFill=0;" edge="1" parent="1" source="_Nw6DjDftG40vSoAcGvt-1" target="_Nw6DjDftG40vSoAcGvt-34">
          <mxGeometry relative="1" as="geometry">
            <mxPoint x="570" y="-221" as="sourcePoint" />
            <mxPoint x="835" y="-62" as="targetPoint" />
          </mxGeometry>
        </mxCell>
        <mxCell id="_Nw6DjDftG40vSoAcGvt-54" style="rounded=0;orthogonalLoop=1;jettySize=auto;html=1;endArrow=none;endFill=0;" edge="1" parent="1" source="_Nw6DjDftG40vSoAcGvt-1" target="_Nw6DjDftG40vSoAcGvt-12">
          <mxGeometry relative="1" as="geometry">
            <mxPoint x="560" y="-241" as="sourcePoint" />
            <mxPoint x="940" y="-258" as="targetPoint" />
          </mxGeometry>
        </mxCell>
        <mxCell id="_Nw6DjDftG40vSoAcGvt-55" style="rounded=0;orthogonalLoop=1;jettySize=auto;html=1;endArrow=none;endFill=0;" edge="1" parent="1" source="_Nw6DjDftG40vSoAcGvt-1" target="_Nw6DjDftG40vSoAcGvt-28">
          <mxGeometry relative="1" as="geometry">
            <mxPoint x="560" y="-230" as="sourcePoint" />
            <mxPoint x="808" y="-66" as="targetPoint" />
          </mxGeometry>
        </mxCell>
        <mxCell id="_Nw6DjDftG40vSoAcGvt-56" value="&amp;lt;&amp;lt;extend&amp;gt;&amp;gt;" style="html=1;verticalAlign=bottom;labelBackgroundColor=none;endArrow=open;endFill=0;dashed=1;rounded=0;" edge="1" parent="1" source="_Nw6DjDftG40vSoAcGvt-29" target="_Nw6DjDftG40vSoAcGvt-28">
          <mxGeometry width="160" relative="1" as="geometry">
            <mxPoint x="820" y="20" as="sourcePoint" />
            <mxPoint x="980" y="20" as="targetPoint" />
          </mxGeometry>
        </mxCell>
        <mxCell id="_Nw6DjDftG40vSoAcGvt-57" value="&amp;lt;&amp;lt;extend&amp;gt;&amp;gt;" style="html=1;verticalAlign=bottom;labelBackgroundColor=none;endArrow=open;endFill=0;dashed=1;rounded=0;" edge="1" parent="1" source="_Nw6DjDftG40vSoAcGvt-30" target="_Nw6DjDftG40vSoAcGvt-28">
          <mxGeometry width="160" relative="1" as="geometry">
            <mxPoint x="978" y="66" as="sourcePoint" />
            <mxPoint x="1010" y="24" as="targetPoint" />
          </mxGeometry>
        </mxCell>
        <mxCell id="_Nw6DjDftG40vSoAcGvt-58" value="&amp;lt;&amp;lt;extend&amp;gt;&amp;gt;" style="html=1;verticalAlign=bottom;labelBackgroundColor=none;endArrow=open;endFill=0;dashed=1;rounded=0;" edge="1" parent="1" source="_Nw6DjDftG40vSoAcGvt-36" target="_Nw6DjDftG40vSoAcGvt-28">
          <mxGeometry width="160" relative="1" as="geometry">
            <mxPoint x="1081" y="57" as="sourcePoint" />
            <mxPoint x="1053" y="24" as="targetPoint" />
          </mxGeometry>
        </mxCell>
        <mxCell id="_Nw6DjDftG40vSoAcGvt-59" style="rounded=0;orthogonalLoop=1;jettySize=auto;html=1;endArrow=none;endFill=0;" edge="1" parent="1" source="_Nw6DjDftG40vSoAcGvt-1" target="_Nw6DjDftG40vSoAcGvt-19">
          <mxGeometry relative="1" as="geometry">
            <mxPoint x="560" y="-221" as="sourcePoint" />
            <mxPoint x="715" y="-29" as="targetPoint" />
          </mxGeometry>
        </mxCell>
        <mxCell id="_Nw6DjDftG40vSoAcGvt-60" style="rounded=0;orthogonalLoop=1;jettySize=auto;html=1;endArrow=none;endFill=0;" edge="1" parent="1" source="_Nw6DjDftG40vSoAcGvt-1" target="_Nw6DjDftG40vSoAcGvt-16">
          <mxGeometry relative="1" as="geometry">
            <mxPoint x="560" y="-239" as="sourcePoint" />
            <mxPoint x="790" y="-231" as="targetPoint" />
          </mxGeometry>
        </mxCell>
        <mxCell id="_Nw6DjDftG40vSoAcGvt-61" value="&amp;lt;&amp;lt;extend&amp;gt;&amp;gt;" style="html=1;verticalAlign=bottom;labelBackgroundColor=none;endArrow=open;endFill=0;dashed=1;rounded=0;" edge="1" parent="1" source="_Nw6DjDftG40vSoAcGvt-17" target="_Nw6DjDftG40vSoAcGvt-16">
          <mxGeometry x="0.081" y="-18" width="160" relative="1" as="geometry">
            <mxPoint x="1050" y="-360" as="sourcePoint" />
            <mxPoint x="1210" y="-360" as="targetPoint" />
            <mxPoint as="offset" />
          </mxGeometry>
        </mxCell>
        <mxCell id="_Nw6DjDftG40vSoAcGvt-62" value="&amp;lt;&amp;lt;extend&amp;gt;&amp;gt;" style="html=1;verticalAlign=bottom;labelBackgroundColor=none;endArrow=open;endFill=0;dashed=1;rounded=0;" edge="1" parent="1" source="_Nw6DjDftG40vSoAcGvt-18" target="_Nw6DjDftG40vSoAcGvt-16">
          <mxGeometry width="160" relative="1" as="geometry">
            <mxPoint x="1134" y="-252" as="sourcePoint" />
            <mxPoint x="1080" y="-239" as="targetPoint" />
          </mxGeometry>
        </mxCell>
        <mxCell id="_Nw6DjDftG40vSoAcGvt-63" style="rounded=0;orthogonalLoop=1;jettySize=auto;html=1;endArrow=none;endFill=0;" edge="1" parent="1" source="_Nw6DjDftG40vSoAcGvt-2" target="_Nw6DjDftG40vSoAcGvt-21">
          <mxGeometry relative="1" as="geometry">
            <mxPoint x="540" y="470" as="sourcePoint" />
            <mxPoint x="715" y="-29" as="targetPoint" />
          </mxGeometry>
        </mxCell>
        <mxCell id="_Nw6DjDftG40vSoAcGvt-64" style="rounded=0;orthogonalLoop=1;jettySize=auto;html=1;endArrow=none;endFill=0;" edge="1" parent="1" source="_Nw6DjDftG40vSoAcGvt-2" target="_Nw6DjDftG40vSoAcGvt-22">
          <mxGeometry relative="1" as="geometry">
            <mxPoint x="550" y="480" as="sourcePoint" />
            <mxPoint x="710" y="433" as="targetPoint" />
          </mxGeometry>
        </mxCell>
        <mxCell id="_Nw6DjDftG40vSoAcGvt-65" style="rounded=0;orthogonalLoop=1;jettySize=auto;html=1;endArrow=none;endFill=0;" edge="1" parent="1" source="_Nw6DjDftG40vSoAcGvt-2" target="_Nw6DjDftG40vSoAcGvt-23">
          <mxGeometry relative="1" as="geometry">
            <mxPoint x="560" y="438" as="sourcePoint" />
            <mxPoint x="702" y="422" as="targetPoint" />
          </mxGeometry>
        </mxCell>
        <mxCell id="_Nw6DjDftG40vSoAcGvt-66" style="rounded=0;orthogonalLoop=1;jettySize=auto;html=1;endArrow=none;endFill=0;" edge="1" parent="1" source="_Nw6DjDftG40vSoAcGvt-3" target="_Nw6DjDftG40vSoAcGvt-38">
          <mxGeometry relative="1" as="geometry">
            <mxPoint x="560" y="-241" as="sourcePoint" />
            <mxPoint x="846" y="-266" as="targetPoint" />
          </mxGeometry>
        </mxCell>
        <mxCell id="_Nw6DjDftG40vSoAcGvt-67" style="rounded=0;orthogonalLoop=1;jettySize=auto;html=1;endArrow=none;endFill=0;" edge="1" parent="1" source="_Nw6DjDftG40vSoAcGvt-3" target="_Nw6DjDftG40vSoAcGvt-37">
          <mxGeometry relative="1" as="geometry">
            <mxPoint x="1580" y="-210" as="sourcePoint" />
            <mxPoint x="1397" y="-169" as="targetPoint" />
          </mxGeometry>
        </mxCell>
      </root>
    </mxGraphModel>
  </diagram>
</mxfile>
